# xmcd CD database file
#
# Track frame offsets:
#	150
#	15209
#	43279
#	58918
#	66823
#	80935
#	106519
#	120158
#	149807
#	162131
#	172565
#	186770
#	200696
#	215479
#	229648
#	243302
#
# Disc length: 3417 seconds
#
# Revision: 3
# Processed by: cddbd v1.5.2PL0 Copyright (c) Steve Scherf et al.
# Submitted via: CDex 1.51
#
DISCID=d60d5710
DTITLE=Louis Armstrong - Vol.08 - Life Is So Peculiar
DYEAR=1900
DGENRE=Jazz
TTITLE0=Life Is So Peculiar
TTITLE1=Monday Date
TTITLE2=Ole Miss
TTITLE3=St. James Infirmary
TTITLE4=You Rascal You
TTITLE5=Baby, It's Cold Outside
TTITLE6=Chlo-E  (Song Of The Swamp)
TTITLE7=My Monday Date
TTITLE8=Ramona
TTITLE9=Who Walks In When I Walk Out
TTITLE10=I Got Rhythm
TTITLE11=Between The Devil And The Deep Blue Sea
TTITLE12=Kickin' The Gong Around
TTITLE13=Home
TTITLE14=All Of Me
TTITLE15=That's What The Man Said
EXTD=
EXTT0=
EXTT1=
EXTT2=
EXTT3=
EXTT4=
EXTT5=
EXTT6=
EXTT7=
EXTT8=
EXTT9=
EXTT10=
EXTT11=
EXTT12=
EXTT13=
EXTT14=
EXTT15=
PLAYORDER=
